<svg width="57" height="57" viewBox="0 0 57 57" fill="none" xmlns="http://www.w3.org/2000/svg">
<path d="M28.5 0C12.7858 0 0 12.7858 0 28.5C0 44.2142 12.7858 57 28.5 57C44.2142 57 57 44.2142 57 28.5C57 12.7858 44.2142 0 28.5 0ZM28.5 54.6251C14.0943 54.6251 2.37486 42.9057 2.37486 28.5C2.37486 14.0943 14.0943 2.37486 28.5 2.37486C42.9057 2.37486 54.6251 14.0943 54.6251 28.5C54.6251 42.9057 42.9057 54.6251 28.5 54.6251Z" fill="white"/>
<path d="M51.0612 35.9407C51.8496 33.5467 52.2497 31.0436 52.2497 28.5C52.2497 15.4042 41.5957 4.75014 28.4999 4.75014C15.404 4.75014 4.75 15.4042 4.75 28.5C4.75 41.5958 15.404 52.2499 28.4999 52.2499C37.6779 52.2499 46.1258 46.8765 50.0197 38.5604L47.8679 37.5537C46.9703 39.4715 45.8005 41.211 44.4233 42.7439L42.7738 41.0957L41.0943 42.7748L42.7355 44.4147C39.7501 47.0748 36.0536 48.88 32.0624 49.5615V47.5001H29.6875V49.8324C29.2931 49.8537 28.8978 49.875 28.4999 49.875C28.0985 49.875 27.7079 49.8372 27.3122 49.8146V47.5001H24.9374V49.5532C20.8787 48.8678 17.214 47.0405 14.2725 44.4064L15.9054 42.7739L14.2259 41.0944L12.5934 42.7274C9.45361 39.2206 7.46232 34.6844 7.1853 29.6876H9.49971V27.3124H7.1853C7.46232 22.3156 9.45361 17.7794 12.5934 14.2726L14.2259 15.9056L15.9054 14.2261L14.2725 12.5936C17.214 9.95952 20.8787 8.13217 24.9374 7.44681V9.49986H27.3122V7.18545C27.7079 7.16283 28.0985 7.125 28.4999 7.125C28.9012 7.125 29.2918 7.16283 29.6875 7.18545V9.49986H32.0624V7.44681C36.121 8.13217 39.7857 9.95952 42.7272 12.5936L41.0943 14.2261L42.7738 15.9056L44.4063 14.2726C47.5461 17.7794 49.5374 22.3156 49.8144 27.3124H47.5V29.6876H49.8288C49.7253 31.5685 49.3917 33.4176 48.8051 35.1962L51.0612 35.9407Z" fill="white"/>
<path d="M39.5352 15.7855L28.4998 26.8209L19.8392 18.1604L18.1602 19.8395L26.8207 28.5L25.2852 30.0355L26.9642 31.7146L28.4998 30.1791L30.0353 31.7146L31.7144 30.0355L30.1788 28.5L41.2142 17.4646L39.5352 15.7855Z" fill="white"/>
</svg>
