<svg width="57" height="57" viewBox="0 0 57 57" fill="none" xmlns="http://www.w3.org/2000/svg">
<path d="M53.7409 54.0813L51.2194 39.3189C50.9476 37.7283 49.8193 36.4506 48.2744 35.9846L41.4731 33.9325C41.3323 32.2699 40.6506 30.7014 39.5162 29.4599C38.6088 28.4668 37.4674 27.7437 36.2093 27.3447C36.4246 27.1058 36.6242 26.8677 36.8074 26.6348C38.4248 24.5778 39.2907 22.3116 39.5111 20.7651H40.0358C41.4004 20.7651 42.5107 19.655 42.5107 18.2902V17.0215C42.5107 16.1107 41.9984 15.2855 41.2279 14.8572V11.8063C41.2279 11.3453 40.8541 10.9716 40.3931 10.9716C39.9321 10.9716 39.5585 11.3452 39.5585 11.8063V15.2312C39.2334 15.2877 38.8456 15.3852 38.4488 15.5523C38.4082 15.5671 38.3686 15.5843 38.3312 15.6049C38.2416 15.6457 38.1519 15.6888 38.0625 15.7373V9.01068C38.0625 7.15228 36.5507 5.64044 34.6923 5.64044H32.3883C31.5937 5.64044 30.8174 5.91731 30.2022 6.42029L29.9761 6.6051C29.5608 6.94465 29.0367 7.13168 28.5002 7.13168C27.9637 7.13168 27.4395 6.94465 27.0242 6.6051L26.7982 6.42029C26.183 5.91742 25.4067 5.64044 24.6121 5.64044H22.3079C20.4495 5.64044 18.9377 7.15228 18.9377 9.01068V15.7373C18.8483 15.6888 18.7585 15.6457 18.6689 15.6049C18.6315 15.5843 18.5921 15.5671 18.5515 15.5523C18.1547 15.3852 17.7667 15.2877 17.4417 15.2312V6.57114C17.4417 3.86832 19.6407 1.66937 22.3435 1.66937H34.6565C37.3595 1.66937 39.5583 3.86832 39.5583 6.57114V7.88326C39.5583 8.34426 39.932 8.71799 40.3929 8.71799C40.8538 8.71799 41.2277 8.34438 41.2277 7.88326V6.57114C41.2277 2.94786 38.2798 0 34.6565 0H22.3435C18.7201 0 15.7724 2.94786 15.7724 6.57114V14.8573C15.0019 15.2856 14.4895 16.1107 14.4895 17.0216V18.2903C14.4895 19.6551 15.5998 20.7653 16.9645 20.7653H17.4892C17.7095 22.3117 18.5755 24.5779 20.1929 26.6349C20.3758 26.8676 20.5753 27.1055 20.7904 27.3442C17.8981 28.2629 15.7889 30.8633 15.5271 33.9325L8.72564 35.9846C7.18074 36.4506 6.05232 37.7283 5.78068 39.3189L4.75668 45.3138C4.67909 45.7682 4.98457 46.1994 5.4389 46.277C5.89312 46.3548 6.32452 46.0492 6.40223 45.5948L7.42622 39.5999C7.59054 38.6375 8.27321 37.8647 9.2078 37.5828L15.4984 35.6848V37.3359C14.0565 37.6013 12.8295 38.5918 12.3242 39.9641C12.1901 40.3284 12.1067 40.7098 12.0764 41.0977L11.4684 48.9012C11.4226 49.489 11.626 50.0744 12.0262 50.5069C12.4264 50.9395 12.9941 51.1878 13.5836 51.1878H14.6243C15.0853 51.1878 15.459 50.8142 15.459 50.353C15.459 49.8919 15.0853 49.5184 14.6243 49.5184H13.5836C13.4579 49.5184 13.337 49.4656 13.2516 49.3732C13.1663 49.2811 13.123 49.1564 13.1328 49.0311L13.7408 41.2275C13.7591 40.9925 13.8096 40.7615 13.8908 40.5409C14.2424 39.5863 15.1918 38.9398 16.2535 38.9323L16.391 38.9313C16.3975 38.9312 16.4038 38.9312 16.4102 38.9312C17.4421 38.9312 18.3555 39.5164 18.7408 40.426C18.8489 40.6811 18.9146 40.9507 18.9362 41.2275L19.5444 49.0312C19.5541 49.1564 19.5108 49.2811 19.4255 49.3734C19.3402 49.4655 19.2192 49.5184 19.0935 49.5184H18.0528C17.5918 49.5184 17.2181 49.892 17.2181 50.353C17.2181 50.8141 17.5918 51.1878 18.0528 51.1878H19.0935C19.683 51.1878 20.2508 50.9396 20.6509 50.5069C21.0512 50.0742 21.2546 49.4889 21.2088 48.9013L20.6006 41.0977C20.5649 40.641 20.4564 40.1958 20.2779 39.7746C19.7281 38.4769 18.5524 37.5746 17.1677 37.3304V35.1811L20.037 34.3153C20.2981 34.8652 20.8154 36.0534 21.8402 38.6147C22.873 41.1991 24.1567 44.5117 25.3879 47.7319C25.3967 47.759 25.4068 47.7854 25.4182 47.8112C26.2398 49.9611 27.0368 52.0667 27.7184 53.8831C27.8407 54.2089 28.1521 54.4246 28.5 54.4246C28.8479 54.4246 29.1592 54.2089 29.2815 53.8831C29.963 52.0667 30.76 49.9611 31.5817 47.8112C31.5932 47.7854 31.6032 47.7589 31.612 47.7319C32.8423 44.5135 34.1254 41.2031 35.1577 38.6195C36.1838 36.0548 36.7016 34.8656 36.9628 34.3153L39.8322 35.1811V40.1113C37.8441 40.4975 36.3381 42.2509 36.3381 44.3503C36.3381 46.7318 38.2756 48.6693 40.6571 48.6693C43.0386 48.6693 44.9761 46.7319 44.9761 44.3503C44.9761 42.2578 43.48 40.5086 41.5015 40.1149V35.6849L47.7922 37.5829C48.7268 37.8648 49.4094 38.6376 49.5738 39.6L52.0954 54.3624C52.1373 54.6072 52.0721 54.8466 51.9119 55.0364C51.7518 55.2261 51.5268 55.3307 51.2785 55.3307H5.72145C5.47308 55.3307 5.2482 55.2262 5.088 55.0364C4.92791 54.8466 4.86267 54.6073 4.90453 54.3624L5.73671 49.4905C5.8143 49.036 5.50882 48.6049 5.05449 48.5273C4.60027 48.4493 4.16887 48.7551 4.09117 49.2095L3.25899 54.0814C3.13486 54.8086 3.33647 55.5491 3.81207 56.1129C4.28788 56.6767 4.98379 57 5.72145 57H51.2785C52.0161 57 52.7122 56.6767 53.1879 56.1128C53.6635 55.549 53.8651 54.8085 53.7409 54.0813ZM39.5683 16.9318C40.0131 16.8209 40.3701 16.8229 40.3741 16.823C40.5179 16.8249 40.6578 16.7913 40.782 16.7262C40.8192 16.8187 40.8411 16.9181 40.8411 17.0216V18.2903C40.8411 18.7345 40.4798 19.0959 40.0356 19.0959H39.5683V16.9318ZM17.4316 19.0959H16.9644C16.5202 19.0959 16.1588 18.7345 16.1588 18.2903V17.0216C16.1588 16.9181 16.1808 16.8187 16.2179 16.7263C16.342 16.7914 16.4819 16.825 16.6258 16.823C16.6322 16.8241 16.9882 16.8221 17.4316 16.9322V19.0959ZM19.101 20.0318V17.8389C19.3539 17.9147 19.6306 17.9043 19.886 17.7978C20.324 17.615 20.607 17.1905 20.607 16.7161V9.01068C20.607 8.07285 21.3701 7.3098 22.3079 7.3098H24.6118C25.0224 7.3098 25.4235 7.45286 25.7414 7.7127L25.9674 7.89751C26.68 8.4802 27.5794 8.80093 28.5 8.80093C29.4205 8.80093 30.32 8.48009 31.0326 7.89751L31.2586 7.7127C31.5763 7.45286 31.9775 7.3098 32.3881 7.3098H34.692C35.6299 7.3098 36.3929 8.07285 36.3929 9.01068V16.7163C36.3929 17.1905 36.6759 17.6151 37.114 17.7979C37.2603 17.8589 37.4134 17.8885 37.5653 17.8885C37.6785 17.8885 37.7908 17.872 37.8989 17.8397V20.0318C37.8989 21.2505 37.0564 23.6171 35.4949 25.603C34.9777 26.2609 34.3128 26.9676 33.4943 27.5852C33.4683 27.6026 33.4435 27.6214 33.4198 27.6414C32.1516 28.579 30.521 29.2973 28.5 29.2973C26.4789 29.2973 24.8483 28.579 23.58 27.6413C23.5563 27.6214 23.5316 27.6026 23.5058 27.5853C22.6872 26.9676 22.0223 26.2609 21.505 25.603C19.9436 23.6173 19.101 21.2505 19.101 20.0318ZM33.9684 33.5176L28.5 37.6049L23.0315 33.5176C23.5738 32.8283 23.8776 31.9436 23.8776 31.1541V29.8085C25.1636 30.5001 26.698 30.9668 28.5 30.9668C30.3019 30.9668 31.8365 30.5001 33.1223 29.8085V31.1541C33.1223 31.9436 33.4261 32.8283 33.9684 33.5176ZM21.6385 32.5859C21.1927 32.4161 20.6985 32.3882 20.2311 32.515C20.2106 32.5198 20.1905 32.5253 20.1711 32.5311L17.2873 33.4012C17.7751 31.003 19.7224 29.0942 22.2083 28.7244V31.1541C22.2083 31.6777 21.9745 32.2191 21.6385 32.5859ZM23.9039 39.2865C23.9023 39.2826 23.9008 39.2787 23.8993 39.2749C23.857 39.1679 23.8153 39.0624 23.7739 38.9581C23.7664 38.9391 23.7589 38.9203 23.7515 38.9016C23.711 38.7995 23.6708 38.6982 23.6311 38.5986C23.6284 38.5916 23.6256 38.5847 23.6228 38.5775C23.4991 38.2666 23.3799 37.9683 23.2652 37.6826C23.2569 37.6619 23.2485 37.6408 23.2402 37.6202C23.2072 37.5383 23.1748 37.4576 23.1426 37.3779C23.1308 37.3486 23.1191 37.3196 23.1075 37.2907C23.0763 37.2134 23.0453 37.1366 23.0148 37.0615C23.0057 37.039 22.9968 37.0172 22.9878 36.9948C22.9324 36.8583 22.8783 36.7253 22.8256 36.5956C22.8113 36.5605 22.7967 36.5248 22.7826 36.4901C22.7619 36.4396 22.7417 36.3904 22.7215 36.3408C22.6997 36.2874 22.6778 36.2344 22.6565 36.1823C22.6484 36.1628 22.6401 36.1422 22.6321 36.1229C22.6256 36.1073 22.6197 36.0929 22.6134 36.0774C22.517 35.8432 22.4253 35.6224 22.3384 35.4148C22.3377 35.4131 22.337 35.4115 22.3363 35.4098C22.29 35.2993 22.2447 35.1913 22.2011 35.0884C22.1785 35.0351 22.1563 34.9826 22.1344 34.9312L26.8375 38.4463L24.8723 39.2811C24.8689 39.2826 24.8653 39.284 24.8619 39.2856L24.0414 39.6341C23.9948 39.5165 23.9493 39.4011 23.9039 39.2865ZM25.8956 44.3973C25.7307 43.9695 25.5646 43.5392 25.3981 43.1094C25.1379 42.4371 24.8893 41.7978 24.6514 41.1888L24.9628 41.0565L26.2355 42.5359L25.8956 44.3973ZM28.5161 51.1814C28.4922 51.1318 28.4637 51.0849 28.4307 51.0413C28.0535 50.0443 27.5748 48.7829 27.045 47.3949L27.8243 43.1283H29.1756L29.9549 47.3949C29.3997 48.849 28.9011 50.1638 28.5161 51.1814ZM29.4887 41.459H27.5113L26.5755 40.3714L28.5 39.5539L30.4244 40.3714L29.4887 41.459ZM31.6018 43.1094C31.4354 43.5392 31.2693 43.9695 31.1044 44.3973L30.7644 42.5358L32.0371 41.0564L32.3486 41.1887C32.1107 41.7977 31.8621 42.4371 31.6018 43.1094ZM34.7989 35.0884C34.7576 35.1859 34.7146 35.2882 34.6709 35.3927C34.6652 35.4062 34.6594 35.4199 34.6537 35.4336C34.6104 35.5372 34.5663 35.6429 34.5207 35.753C34.5177 35.7603 34.5146 35.7679 34.5116 35.7753C34.4722 35.8703 34.4317 35.9682 34.3907 36.0681C34.383 36.0868 34.3757 36.104 34.3681 36.1229C34.3589 36.1452 34.3491 36.1689 34.3399 36.1915C34.3216 36.2361 34.3031 36.2815 34.2843 36.3269C34.2614 36.3829 34.2386 36.4387 34.2151 36.496C34.2076 36.5143 34.2 36.5333 34.1924 36.5517C34.1343 36.6941 34.0746 36.8408 34.0136 36.9916C34.004 37.0152 33.9946 37.0383 33.985 37.0622C33.9548 37.1367 33.9241 37.2128 33.8933 37.2892C33.8812 37.3192 33.8691 37.349 33.857 37.3793C33.8251 37.4582 33.7929 37.5382 33.7604 37.6192C33.7513 37.6418 33.7421 37.665 33.7329 37.6877C33.6197 37.9696 33.5023 38.2636 33.3804 38.57C33.3764 38.5801 33.3723 38.59 33.3683 38.6002C33.3289 38.6992 33.2891 38.7999 33.2488 38.9013C33.2413 38.9202 33.2337 38.9391 33.2262 38.9582C33.1845 39.063 33.1426 39.169 33.1 39.2767C33.0993 39.2787 33.0985 39.2807 33.0977 39.2826C33.0518 39.3986 33.0057 39.5153 32.9588 39.6344L32.1375 39.2855C32.1346 39.2842 32.1317 39.283 32.1289 39.2818L30.1626 38.4465L34.8657 34.9314C34.8437 34.9826 34.8214 35.035 34.7989 35.0884ZM36.8289 32.5312C36.8288 32.5312 36.8285 32.5311 36.8284 32.5311C36.8277 32.5309 36.827 32.5307 36.8263 32.5304C36.342 32.3851 35.8255 32.4092 35.3616 32.5859C35.0255 32.2191 34.7918 31.6777 34.7918 31.1541V28.7232C37.2932 29.0919 39.2347 30.9828 39.716 33.4022L36.8289 32.5312ZM43.3067 44.3503C43.3067 45.8114 42.1181 47 40.6571 47C39.1961 47 38.0075 45.8114 38.0075 44.3503C38.0075 42.8893 39.1961 41.7007 40.6571 41.7007C42.1181 41.7007 43.3067 42.8893 43.3067 44.3503Z" fill="white"/>
</svg>
