<svg width="57" height="57" viewBox="0 0 57 57" fill="none" xmlns="http://www.w3.org/2000/svg">
<path d="M44.65 5.7V0H4.75V51.3H12.35V57H52.25V5.7H44.65ZM6.65 1.9H42.75V49.4H6.65V1.9ZM50.35 55.1H14.25V51.3H44.65V7.6H50.35V55.1Z" fill="white"/>
<path d="M32.3514 17.6042C29.1628 14.1665 24.0742 13.275 19.9068 15.4236C15.7394 17.5727 13.5147 22.2355 14.4666 26.8264C15.4184 31.4177 19.313 34.8118 23.9911 35.1273C24.2323 35.1426 24.4717 35.1509 24.7106 35.1509C28.518 35.1542 32.0253 33.0816 33.8594 29.745C35.6936 26.408 35.5632 22.3366 33.5199 19.1234L37.2466 15.3967L35.9032 14.0533L32.3514 17.6042ZM33.2309 25.2747C32.9187 29.9102 28.9624 33.4476 24.3209 33.2417C19.68 33.0357 16.0525 29.1615 16.1522 24.5168C16.252 19.8721 20.0418 16.157 24.6874 16.15C24.8822 16.15 25.0789 16.1565 25.2756 16.1709C27.4748 16.3188 29.5302 17.3143 31.0099 18.9476L22.7999 27.1566L19.6716 24.0283L18.3282 25.3717L22.7999 29.8434L32.1413 20.502C32.9646 21.9516 33.3436 23.6113 33.2309 25.2747Z" fill="white"/>
<path d="M12.3501 38H37.0501V39.9H12.3501V38Z" fill="white"/>
<path d="M12.3501 41.8H22.8001V43.7H12.3501V41.8Z" fill="white"/>
<path d="M24.7 41.8H37.05V43.7H24.7V41.8Z" fill="white"/>
<path d="M35.15 4.75H14.25V11.4H35.15V4.75ZM33.25 9.5H16.15V6.65H33.25V9.5Z" fill="white"/>
</svg>
