<svg width="57" height="57" viewBox="0 0 57 57" fill="none" xmlns="http://www.w3.org/2000/svg">
<g clip-path="url(#clip0)">
<path d="M56.931 31.7748C56.5098 28.8567 54.2174 26.5642 51.2992 26.143V24.4159C51.2992 19.6508 47.6769 15.7711 43.2243 15.7711C38.9 15.7711 35.2796 19.533 35.1495 24.1575H35.2046L35.1495 24.167V42.8884C35.1495 48.8733 30.675 53.7335 25.1746 53.7335C19.6742 53.7335 15.1998 48.8667 15.1998 42.8884V41.2668C16.5773 41.2668 18.0497 40.2684 18.0497 37.4669V35.0776C24.1467 33.5187 28.4996 28.2833 28.4996 22.3478V20.3671H26.5996L26.5597 8.00303C26.5459 5.7144 24.9036 3.76028 22.6515 3.35285C22.1657 1.86458 20.5653 1.05187 19.0769 1.53778C17.5886 2.02358 16.7759 3.62395 17.2618 5.11234C17.7476 6.60062 19.348 7.41333 20.8364 6.92741C21.6333 6.66723 22.2742 6.06767 22.5869 5.28987C23.8039 5.63614 24.647 6.74335 24.6569 8.00873L24.6996 20.3671H22.7997V22.3754C22.7239 25.6798 20.5085 28.5514 17.3315 29.4632C15.6317 30.0026 13.8065 30.0026 12.1066 29.4632C8.93331 28.5483 6.72293 25.6772 6.6499 22.3754V20.3671H3.79994V8.01728C3.80541 6.73326 4.66894 5.61133 5.90891 5.27752C6.4871 6.74941 8.14898 7.47377 9.62086 6.89559C11.0927 6.3174 11.8171 4.6554 11.2389 3.18364C10.6607 1.71187 8.99874 0.987386 7.52697 1.56557C6.72946 1.87895 6.11411 2.53289 5.85001 3.3481C3.57325 3.73712 1.90627 5.70751 1.89997 8.01728V20.3671H0V22.3431C0 28.2852 4.35568 33.5225 10.4498 35.0776V37.4669C10.4498 40.2684 11.9223 41.2668 13.2998 41.2668V42.8884C13.2998 49.9183 18.6264 55.6334 25.1746 55.6334C31.7229 55.6334 37.0494 49.9117 37.0494 42.8884V24.2126C37.1444 20.6074 39.9165 17.6739 43.2243 17.6739C46.6291 17.6739 49.3993 20.6986 49.3993 24.4188V26.143C45.7643 26.6676 43.2429 30.0397 43.7675 33.6747C44.2921 37.3098 47.6642 39.8311 51.2992 39.3065C54.9342 38.7819 57.4556 35.4097 56.931 31.7748ZM19.9497 5.16733C19.4251 5.16733 18.9997 4.74197 18.9997 4.21734C18.9997 3.69271 19.4251 3.26735 19.9497 3.26735C20.4743 3.26735 20.8997 3.69271 20.8997 4.21734C20.8997 4.74197 20.4743 5.16733 19.9497 5.16733ZM8.54987 3.26735C9.0745 3.26735 9.49986 3.69271 9.49986 4.21734C9.49986 4.74197 9.0745 5.16733 8.54987 5.16733C8.02524 5.16733 7.59989 4.74197 7.59989 4.21734C7.59989 3.69271 8.02524 3.26735 8.54987 3.26735ZM1.89997 22.3431V22.2671H4.74993V22.3754C4.82118 26.5044 7.56818 30.1078 11.5309 31.2701C13.6075 31.9276 15.8364 31.9276 17.9129 31.2701C21.8776 30.1093 24.6271 26.5058 24.6996 22.3754V22.2671H26.5996V22.3431C26.5996 27.6278 22.5261 32.278 16.9097 33.4028C15.5909 33.6669 14.24 33.7332 12.9018 33.5995C12.4612 33.5567 12.0233 33.4904 11.5898 33.4009C5.97351 32.278 1.89997 27.6278 1.89997 22.3431ZM13.2998 39.3668C12.4448 39.3668 12.3498 38.0368 12.3498 37.4669V35.451C12.4258 35.4605 12.5037 35.4643 12.5807 35.4719C12.6757 35.4823 12.7707 35.4899 12.8657 35.4985C13.315 35.5384 13.7681 35.565 14.2251 35.5659H14.2726C14.7286 35.5659 15.1808 35.5384 15.6273 35.4985C15.7223 35.4899 15.823 35.4823 15.9208 35.4719C15.9959 35.4633 16.0738 35.4605 16.1488 35.451V37.4669C16.1488 38.0368 16.0538 39.3668 15.1988 39.3668H13.2998ZM50.3492 37.4669C47.726 37.4669 45.5993 35.3402 45.5993 32.7169C45.5993 30.0937 47.726 27.967 50.3492 27.967C52.9725 27.967 55.0992 30.0937 55.0992 32.7169C55.0961 35.339 52.9712 37.4638 50.3492 37.4669Z" fill="white"/>
<path d="M50.3495 29.867C48.7755 29.867 47.4995 31.1429 47.4995 32.7169C47.4995 34.2909 48.7755 35.5669 50.3495 35.5669C51.9235 35.5669 53.1994 34.2909 53.1994 32.7169C53.1994 31.1429 51.9235 29.867 50.3495 29.867ZM50.3495 33.6669C49.8248 33.6669 49.3995 33.2415 49.3995 32.7169C49.3995 32.1923 49.8248 31.7669 50.3495 31.7669C50.8741 31.7669 51.2995 32.1923 51.2995 32.7169C51.2995 33.2415 50.8741 33.6669 50.3495 33.6669Z" fill="white"/>
</g>
<defs>
<clipPath id="clip0">
<rect width="57" height="57" fill="white"/>
</clipPath>
</defs>
</svg>
